<mxfile host="app.diagrams.net" modified="2023-02-05T13:52:49.926Z" agent="5.0 (Windows)" etag="WV-CYAVevW7lcxSckkXt" version="20.8.16" type="github">
  <diagram name="Page-1" id="WKP1avsl9OBocQngX6lq">
    <mxGraphModel dx="3000" dy="345" grid="1" gridSize="10" guides="1" tooltips="1" connect="1" arrows="1" fold="1" page="1" pageScale="1" pageWidth="827" pageHeight="1169" math="0" shadow="0">
      <root>
        <mxCell id="0" />
        <mxCell id="1" parent="0" />
        <mxCell id="BO4Q1zg04FAonjZJquAe-1" style="edgeStyle=none;rounded=0;orthogonalLoop=1;jettySize=auto;html=1;exitX=1;exitY=0.3333333333333333;exitDx=0;exitDy=0;exitPerimeter=0;entryX=0;entryY=0.5;entryDx=0;entryDy=0;fontSize=18;endArrow=none;endFill=0;" edge="1" parent="1" source="BO4Q1zg04FAonjZJquAe-2" target="BO4Q1zg04FAonjZJquAe-5">
          <mxGeometry relative="1" as="geometry" />
        </mxCell>
        <mxCell id="BO4Q1zg04FAonjZJquAe-2" value="Portier" style="html=1;overflow=block;blockSpacing=1;shape=umlActor;labelPosition=center;verticalLabelPosition=bottom;verticalAlign=top;whiteSpace=nowrap;fontSize=16.7;fontColor=#333333;align=center;spacing=0;strokeColor=#5e5e5e;strokeOpacity=100;rounded=1;absoluteArcSize=1;arcSize=9;strokeWidth=2.3;lucidId=wAitfE4UTxwo;" vertex="1" parent="1">
          <mxGeometry x="205" y="1340" width="60" height="135" as="geometry" />
        </mxCell>
        <mxCell id="BO4Q1zg04FAonjZJquAe-3" style="rounded=0;orthogonalLoop=1;jettySize=auto;html=1;exitX=0;exitY=0.5;exitDx=0;exitDy=0;entryX=1;entryY=0.3333333333333333;entryDx=0;entryDy=0;entryPerimeter=0;endArrow=none;endFill=0;" edge="1" parent="1" source="BO4Q1zg04FAonjZJquAe-4" target="BO4Q1zg04FAonjZJquAe-2">
          <mxGeometry relative="1" as="geometry">
            <mxPoint x="270" y="1415" as="targetPoint" />
          </mxGeometry>
        </mxCell>
        <mxCell id="BO4Q1zg04FAonjZJquAe-4" value="Consulter la liste des evenements supervisÃ©" style="html=1;overflow=block;blockSpacing=1;whiteSpace=wrap;ellipse;fontSize=13;spacing=3.8;strokeColor=#5e5e5e;strokeOpacity=100;rounded=1;absoluteArcSize=1;arcSize=9;strokeWidth=2.3;lucidId=eDitzyq0~7Tt;" vertex="1" parent="1">
          <mxGeometry x="610" y="1362.5" width="120" height="90" as="geometry" />
        </mxCell>
        <mxCell id="BO4Q1zg04FAonjZJquAe-5" value="Verfier les reservations des clients avec Qr reader" style="html=1;overflow=block;blockSpacing=1;whiteSpace=wrap;ellipse;fontSize=13;spacing=3.8;strokeColor=#5e5e5e;strokeOpacity=100;rounded=1;absoluteArcSize=1;arcSize=9;strokeWidth=2.3;lucidId=tDitnoB0Gj56;" vertex="1" parent="1">
          <mxGeometry x="577" y="1490" width="210" height="100" as="geometry" />
        </mxCell>
        <mxCell id="BO4Q1zg04FAonjZJquAe-6" value="S&#39;authentifier" style="html=1;overflow=block;blockSpacing=1;whiteSpace=wrap;ellipse;fontSize=13;spacing=3.8;strokeColor=#5e5e5e;strokeOpacity=100;rounded=1;absoluteArcSize=1;arcSize=9;strokeWidth=2.3;lucidId=XvitAHHM73nt;" vertex="1" parent="1">
          <mxGeometry x="1100" y="1570" width="120" height="90" as="geometry" />
        </mxCell>
        <mxCell id="BO4Q1zg04FAonjZJquAe-7" value="Deconnecter" style="html=1;overflow=block;blockSpacing=1;whiteSpace=wrap;ellipse;fontSize=13;spacing=3.8;strokeColor=#5e5e5e;strokeOpacity=100;rounded=1;absoluteArcSize=1;arcSize=9;strokeWidth=2.3;lucidId=XvitmW9DInrr;" vertex="1" parent="1">
          <mxGeometry x="1240" y="1410" width="120" height="90" as="geometry" />
        </mxCell>
        <mxCell id="BO4Q1zg04FAonjZJquAe-8" value="&amp;lt;&amp;lt;include&amp;gt;&amp;gt;" style="html=1;verticalAlign=bottom;labelBackgroundColor=none;endArrow=open;endFill=0;dashed=1;rounded=0;entryX=0;entryY=0;entryDx=0;entryDy=0;" edge="1" parent="1" target="BO4Q1zg04FAonjZJquAe-6">
          <mxGeometry width="160" relative="1" as="geometry">
            <mxPoint x="740" y="1410" as="sourcePoint" />
            <mxPoint x="900" y="1410" as="targetPoint" />
          </mxGeometry>
        </mxCell>
        <mxCell id="BO4Q1zg04FAonjZJquAe-9" value="&amp;lt;&amp;lt;include&amp;gt;&amp;gt;" style="html=1;verticalAlign=bottom;labelBackgroundColor=none;endArrow=open;endFill=0;dashed=1;rounded=0;entryX=0;entryY=0.5;entryDx=0;entryDy=0;" edge="1" parent="1" target="BO4Q1zg04FAonjZJquAe-6">
          <mxGeometry width="160" relative="1" as="geometry">
            <mxPoint x="790" y="1550" as="sourcePoint" />
            <mxPoint x="950" y="1539.17" as="targetPoint" />
          </mxGeometry>
        </mxCell>
        <mxCell id="BO4Q1zg04FAonjZJquAe-10" value="&amp;lt;&amp;lt;extend&amp;gt;&amp;gt;" style="html=1;verticalAlign=bottom;labelBackgroundColor=none;endArrow=open;endFill=0;dashed=1;rounded=0;entryX=1;entryY=0;entryDx=0;entryDy=0;exitX=0.5;exitY=1;exitDx=0;exitDy=0;" edge="1" parent="1" source="BO4Q1zg04FAonjZJquAe-7" target="BO4Q1zg04FAonjZJquAe-6">
          <mxGeometry width="160" relative="1" as="geometry">
            <mxPoint x="1260" y="1520" as="sourcePoint" />
            <mxPoint x="1420" y="1520" as="targetPoint" />
          </mxGeometry>
        </mxCell>
      </root>
    </mxGraphModel>
  </diagram>
</mxfile>
